<?xml version="1.0" standalone="no"?>
<!DOCTYPE svg PUBLIC "-//W3C//DTD SVG 20010904//EN"
 "http://www.w3.org/TR/2001/REC-SVG-20010904/DTD/svg10.dtd">
<svg version="1.0" xmlns="http://www.w3.org/2000/svg"
 width="2600.000000pt" height="2600.000000pt" viewBox="0 0 2600.000000 2600.000000"
 preserveAspectRatio="xMidYMid meet">
<metadata>
Created by potrace 1.14, written by Peter Selinger 2001-2017
</metadata>
<g transform="translate(0.000000,2600.000000) scale(0.100000,-0.100000)"
fill="#000000" stroke="none">
<path d="M8588 21640 c-7 -27 -1 -4053 6 -4150 3 -52 9 -135 11 -185 6 -100
13 -189 20 -250 2 -22 7 -67 10 -100 3 -33 8 -71 10 -85 2 -14 6 -52 10 -85 6
-58 12 -103 20 -155 3 -14 9 -59 15 -100 11 -85 50 -295 86 -465 2 -11 6 -33
10 -50 16 -81 88 -371 119 -483 112 -400 276 -848 446 -1222 47 -104 239 -485
284 -565 70 -124 109 -192 126 -220 10 -16 22 -37 26 -45 32 -69 306 -483 447
-675 106 -146 306 -402 398 -510 42 -49 63 -74 116 -134 31 -35 65 -73 75 -85
247 -284 742 -758 1072 -1025 11 -9 43 -34 70 -57 28 -23 104 -82 170 -132 66
-50 125 -95 130 -100 129 -106 797 -542 831 -542 3 0 18 -8 32 -19 53 -37 67
-36 155 15 133 77 299 175 337 199 19 12 84 53 143 91 196 124 590 401 692
486 11 9 72 57 135 108 382 306 764 673 1114 1070 714 810 1304 1851 1655
2920 125 383 250 865 296 1141 3 19 8 45 10 59 3 14 8 36 10 50 5 23 12 71 20
127 2 12 6 34 9 50 3 15 8 48 11 73 3 25 8 63 11 85 17 120 22 163 39 340 2
22 7 81 10 130 3 50 8 114 10 143 6 88 7 228 6 2342 l-1 2025 -4599 0 c-4082
0 -4600 -2 -4603 -15z"/>
<path d="M16973 9484 c-218 -48 -396 -212 -454 -419 -21 -77 -16 -227 10 -302
45 -133 137 -240 300 -352 49 -34 93 -61 97 -61 4 0 15 -6 23 -14 9 -8 34 -24
56 -36 318 -177 464 -269 530 -335 88 -87 133 -201 120 -300 -9 -64 -61 -160
-111 -204 -93 -82 -186 -111 -341 -106 -232 7 -440 132 -528 317 -32 67 -85
247 -85 291 0 13 -8 17 -34 17 l-33 0 1 -367 1 -368 33 -3 c27 -3 32 0 32 18
0 29 26 77 48 89 30 16 92 5 255 -44 84 -25 188 -51 231 -57 76 -10 248 -6
311 7 245 50 451 241 496 460 47 232 -48 455 -256 598 -68 48 -165 107 -173
107 -3 0 -13 6 -21 14 -9 7 -50 31 -91 53 -411 219 -575 342 -615 462 -46 141
31 304 180 376 67 33 100 40 205 39 187 -1 384 -112 475 -268 43 -74 92 -228
98 -311 2 -15 10 -21 35 -23 l32 -3 0 370 0 371 -28 0 c-24 0 -32 -7 -51 -49
-15 -34 -31 -53 -52 -61 -34 -14 -54 -10 -234 54 -55 19 -129 40 -165 45 -87
14 -221 12 -297 -5z"/>
<path d="M3963 9430 c2 -11 5 -21 8 -24 2 -2 41 -6 87 -9 100 -7 160 -36 186
-92 17 -36 20 -45 30 -114 3 -19 6 -298 7 -620 2 -543 4 -628 24 -766 33 -233
215 -443 450 -519 127 -40 422 -58 575 -34 285 43 513 227 583 468 46 158 50
223 52 880 2 570 4 620 25 676 12 31 61 79 103 100 38 20 153 30 172 14 7 -6
39 -13 69 -15 108 -7 194 -47 290 -137 l69 -63 -1 -800 c0 -738 -3 -854 -19
-910 -24 -82 -103 -122 -243 -124 -41 -1 -45 -3 -46 -26 l-2 -25 378 0 c307 0
379 3 383 13 10 26 -9 35 -83 40 -84 5 -160 35 -184 72 -36 55 -39 106 -40
843 -1 397 1 722 5 722 3 0 113 -132 245 -292 131 -161 246 -302 256 -313 15
-18 172 -211 252 -309 17 -21 45 -55 62 -75 39 -47 342 -416 374 -457 14 -17
72 -88 129 -158 89 -108 108 -126 132 -126 l29 0 1 953 c0 523 2 972 5 997 17
150 76 195 257 199 43 1 47 3 47 26 l0 25 -380 0 -380 0 0 -25 c0 -23 3 -25
53 -26 148 -2 218 -47 243 -154 7 -30 15 -1405 9 -1405 -2 0 -115 136 -251
303 -135 166 -256 313 -268 327 -11 14 -37 45 -56 70 -19 25 -37 47 -40 50 -3
3 -53 64 -110 135 -58 72 -107 132 -110 135 -3 3 -32 39 -65 80 -33 41 -64 80
-70 86 -5 6 -23 28 -40 49 -16 21 -44 55 -61 74 -16 20 -59 72 -94 116 -35 44
-67 82 -70 85 -3 3 -22 26 -43 53 l-38 47 -675 0 -674 0 0 -25 c0 -23 4 -25
48 -26 134 -1 200 -32 236 -108 21 -46 21 -52 21 -686 0 -669 -4 -739 -45
-861 -42 -121 -128 -213 -267 -283 -106 -53 -202 -74 -338 -75 -129 0 -153 3
-230 29 -186 63 -292 204 -321 425 -3 25 -9 72 -14 105 -5 33 -8 337 -7 675 2
569 3 618 20 655 39 86 86 113 215 124 68 5 75 8 78 29 l4 22 -475 0 c-467 0
-475 0 -472 -20z"/>
<path d="M8750 9425 c0 -23 3 -25 53 -26 68 -1 91 -5 143 -28 54 -24 76 -46
95 -91 20 -51 21 -1755 1 -1813 -32 -90 -101 -124 -249 -126 -39 -1 -43 -3
-43 -26 l0 -25 465 0 465 0 0 25 c0 23 -4 25 -47 26 -86 1 -112 7 -165 36 -38
20 -58 39 -73 68 -20 39 -20 60 -20 915 0 933 -1 922 48 974 45 47 97 63 215
65 38 1 42 3 42 26 l0 25 -465 0 -465 0 0 -25z"/>
<path d="M9790 9421 c0 -21 5 -28 18 -28 39 2 109 -16 147 -38 86 -49 103 -78
248 -416 42 -96 123 -284 182 -419 59 -135 127 -292 152 -350 25 -58 53 -123
63 -145 10 -22 30 -68 44 -102 14 -35 37 -86 50 -115 13 -29 44 -100 69 -158
24 -58 54 -125 65 -150 41 -91 91 -206 101 -232 9 -23 17 -28 43 -28 l33 0 63
158 c35 86 70 171 77 187 7 17 48 116 90 220 42 105 83 204 90 220 7 17 22 55
34 85 12 30 26 64 31 75 14 28 211 508 214 520 2 6 8 21 14 35 5 14 40 99 77
190 122 302 181 391 282 436 30 13 60 24 68 24 20 0 45 28 39 45 -5 13 -55 15
-340 15 l-334 0 0 -25 c0 -14 3 -25 8 -26 42 -4 123 -30 155 -49 17 -11 41
-35 53 -55 18 -31 20 -43 13 -83 -18 -94 -8 -69 -516 -1312 -30 -74 -58 -138
-62 -142 -4 -5 -94 193 -201 440 -106 246 -204 470 -216 497 -62 140 -173 406
-189 454 -45 138 -6 211 126 236 66 12 74 13 85 14 5 1 10 12 10 26 l0 25
-443 0 -443 0 0 -29z"/>
<path d="M12183 9430 c2 -11 5 -21 8 -24 2 -2 41 -6 86 -9 143 -8 198 -57 211
-184 8 -85 8 -1617 0 -1695 -3 -31 -14 -70 -24 -88 -27 -44 -105 -80 -190 -86
-88 -7 -93 -9 -91 -33 l1 -21 838 0 c461 0 838 2 838 4 0 2 41 122 90 267 50
145 90 267 90 271 0 4 -16 8 -35 8 -19 0 -35 -4 -35 -10 0 -10 -88 -162 -99
-170 -3 -3 -19 -24 -35 -47 -69 -102 -179 -174 -291 -192 -33 -5 -195 -8 -360
-7 -272 1 -304 3 -328 19 -16 10 -33 30 -39 45 -7 18 -11 169 -12 452 l-1 425
285 1 c314 2 368 -5 430 -55 37 -29 65 -76 75 -126 8 -40 17 -86 20 -105 1 -9
15 -16 33 -18 l32 -3 0 371 0 371 -32 -3 c-26 -2 -32 -8 -33 -28 -1 -20 -13
-85 -20 -110 -7 -26 -37 -79 -54 -97 -58 -61 -128 -72 -475 -73 l-261 -1 1
413 c1 227 2 419 3 426 2 21 704 15 781 -6 65 -18 133 -69 159 -120 23 -45 61
-171 61 -201 0 -17 6 -21 35 -21 l36 0 -7 148 c-4 81 -8 158 -9 172 -1 14 -3
55 -4 93 l-1 67 -840 0 c-831 0 -840 0 -837 -20z"/>
<path d="M14173 9431 c-2 -27 5 -30 68 -32 87 -1 153 -24 188 -64 32 -37 37
-50 49 -130 10 -67 8 -1638 -2 -1695 -21 -115 -87 -164 -230 -169 -70 -3 -75
-5 -73 -31 1 -20 10 -20 468 -20 l467 0 -2 25 c-1 23 -5 25 -46 26 -167 2
-229 41 -256 157 -9 38 -15 792 -6 793 4 1 55 3 114 4 l107 2 146 -201 c80
-111 240 -331 356 -491 116 -159 213 -296 216 -302 4 -10 74 -13 302 -13 l298
0 -5 28 c-3 23 -9 27 -40 30 -63 4 -195 50 -247 85 -83 57 -162 151 -388 463
-119 165 -220 304 -224 309 -27 32 -95 136 -92 138 2 2 36 12 74 22 116 31
221 90 300 170 79 79 120 152 139 247 26 126 1 282 -59 378 -42 66 -139 157
-214 199 -41 23 -154 58 -212 66 -30 4 -63 10 -74 13 -11 3 -268 7 -570 9
-550 5 -551 5 -552 -16z m1038 -119 c114 -40 193 -110 244 -217 37 -79 48
-130 47 -226 -1 -126 -46 -228 -138 -315 -103 -99 -257 -149 -465 -153 l-106
-2 -1 445 -1 445 53 15 c29 9 70 18 92 22 21 3 40 7 42 9 11 11 186 -6 233
-23z"/>
<path d="M18200 9425 c0 -23 4 -25 48 -26 132 -2 209 -40 246 -119 16 -36 22
-1669 6 -1761 -14 -84 -39 -124 -92 -149 -52 -24 -75 -28 -150 -29 -55 -1 -58
-2 -58 -26 l0 -25 465 0 465 0 0 25 c0 23 -3 25 -52 26 -69 1 -95 5 -143 26
-38 16 -94 64 -96 80 0 5 -4 19 -7 33 -4 14 -7 417 -7 895 l0 870 25 50 c37
73 100 103 223 104 54 1 57 2 57 26 l0 25 -465 0 -465 0 0 -25z"/>
<path d="M19319 9393 c0 -32 -2 -76 -3 -98 -2 -22 -6 -113 -10 -201 l-8 -161
27 2 c34 4 35 6 41 47 11 82 46 166 91 217 81 93 133 107 400 110 l191 2 -2
-893 c-2 -491 -6 -905 -10 -920 -18 -76 -55 -118 -124 -142 -23 -8 -44 -15
-47 -16 -3 0 -32 0 -65 0 -57 0 -60 -1 -60 -25 l0 -25 460 0 460 0 0 24 c0 22
-4 24 -77 28 -143 8 -204 58 -220 178 -3 30 -7 444 -7 920 l-1 865 170 2 c259
4 349 -18 429 -107 47 -52 71 -106 88 -193 13 -70 11 -68 66 -67 4 0 6 24 6
53 -2 81 -20 432 -23 450 0 4 -399 7 -886 7 l-885 0 -1 -57z"/>
<path d="M21280 9425 c0 -23 4 -25 43 -26 145 -2 236 -52 254 -139 5 -19 8
-424 8 -900 l0 -865 -25 -50 c-37 -73 -102 -102 -232 -104 -44 -1 -48 -3 -48
-26 l0 -25 465 0 465 0 0 25 c0 22 -4 25 -37 26 -130 2 -215 37 -248 104 -20
39 -20 60 -20 920 l0 880 25 50 c38 75 100 103 233 104 43 1 47 3 47 26 l0 25
-465 0 -465 0 0 -25z"/>
<path d="M10386 6254 c-14 -31 -26 -58 -26 -61 0 -2 -9 -25 -21 -51 -12 -26
-27 -60 -35 -77 -7 -16 -45 -106 -85 -200 -39 -93 -80 -188 -90 -210 -10 -22
-131 -305 -269 -630 -138 -324 -270 -625 -293 -669 -71 -132 -119 -172 -247
-200 -20 -4 -26 -12 -26 -31 l0 -25 343 0 343 0 0 25 c0 14 -3 25 -7 25 -33 2
-97 14 -140 26 -90 25 -122 88 -92 184 5 19 12 42 14 50 2 13 66 165 110 265
7 17 25 56 38 88 l26 57 419 0 420 0 77 -187 c131 -317 140 -385 60 -446 -16
-12 -104 -33 -152 -36 -7 -1 -13 -12 -13 -26 l0 -25 428 0 428 0 0 25 c0 14
-5 25 -10 26 -62 4 -131 28 -175 59 -85 62 -100 94 -426 875 -119 286 -222
534 -230 550 -7 17 -23 54 -35 84 -11 30 -29 73 -39 95 -10 23 -35 82 -56 131
-20 50 -43 104 -50 120 -7 17 -29 71 -49 120 -50 122 -49 120 -84 123 -28 3
-32 -1 -56 -54z m134 -839 c78 -187 155 -370 171 -407 l28 -68 -369 0 -370 0
9 23 c8 20 62 146 95 221 41 94 63 143 161 373 103 239 110 251 121 225 7 -15
76 -180 154 -367z"/>
<path d="M14753 6273 c-20 -49 -161 -379 -178 -418 -8 -16 -79 -185 -160 -375
-81 -190 -153 -358 -160 -375 -7 -16 -75 -174 -150 -350 -216 -503 -240 -543
-353 -578 -26 -9 -59 -18 -73 -21 -19 -4 -26 -12 -25 -28 l1 -23 340 -3 341
-2 2 25 c1 18 -3 25 -16 26 -9 0 -26 2 -37 5 -11 2 -32 6 -48 8 -125 19 -169
85 -135 201 6 22 11 42 11 45 0 3 38 95 86 205 l87 200 421 3 421 2 76 -185
c87 -210 104 -259 112 -331 6 -47 4 -54 -25 -87 -37 -41 -94 -62 -183 -67 -5
0 -8 -11 -8 -25 l0 -25 429 0 c403 0 429 1 426 18 -2 9 -4 22 -4 29 -1 7 -7
10 -13 8 -22 -8 -137 32 -175 61 -47 35 -99 118 -155 245 -41 93 -587 1394
-711 1694 -65 159 -63 155 -98 155 -25 0 -32 -6 -46 -37z m98 -788 c67 -159
145 -347 174 -417 l53 -128 -369 0 -369 0 9 23 c5 12 39 92 76 177 56 128 206
477 273 633 14 32 18 36 24 20 4 -10 62 -148 129 -308z"/>
<path d="M18816 6278 c-8 -18 -115 -267 -236 -553 -122 -286 -227 -533 -235
-550 -7 -16 -84 -194 -170 -395 -240 -560 -251 -577 -420 -619 -34 -9 -41 -15
-41 -36 l0 -25 341 2 340 3 3 23 c2 13 -2 22 -10 23 -90 5 -167 30 -203 64
-60 56 -48 117 83 420 l78 180 421 3 421 2 78 -187 c78 -188 114 -297 114
-341 0 -37 -28 -86 -58 -104 -27 -16 -66 -27 -122 -33 -14 -2 -28 -3 -32 -4
-5 -1 -8 -12 -8 -26 l0 -25 428 0 427 0 1 23 c2 22 -5 25 -64 38 -128 26 -189
91 -281 294 -27 61 -140 328 -251 595 -111 267 -210 503 -220 525 -10 22 -73
173 -141 335 -173 418 -164 400 -199 400 -23 0 -32 -7 -44 -32z m-3 -558 c14
-36 80 -195 148 -355 67 -159 134 -320 150 -357 l28 -68 -369 0 -370 0 9 23
c5 12 82 191 171 397 89 206 168 390 176 409 17 41 23 36 57 -49z"/>
<path d="M6420 6237 c0 -21 7 -23 86 -34 93 -13 149 -40 180 -88 43 -65 44
-98 41 -975 -2 -772 -3 -838 -20 -874 -37 -83 -100 -113 -239 -115 -44 -1 -48
-3 -48 -26 l0 -25 380 0 380 0 0 25 c0 22 -4 25 -37 26 -83 1 -126 9 -171 31
-51 25 -77 62 -88 123 -11 61 -14 1596 -3 1589 5 -3 9 -9 9 -14 0 -9 15 -41
116 -258 24 -51 44 -95 44 -97 0 -2 20 -46 44 -97 24 -51 50 -109 59 -128 9
-19 43 -93 76 -163 34 -71 61 -130 61 -132 0 -2 20 -45 44 -97 24 -51 55 -118
68 -148 14 -30 40 -86 58 -125 81 -177 146 -317 185 -402 24 -50 46 -101 50
-112 9 -31 71 -30 81 1 6 21 22 56 110 246 20 42 55 120 79 172 23 52 58 129
78 170 88 190 101 218 123 266 26 59 231 505 279 609 18 39 42 90 53 115 75
167 91 200 94 200 7 0 1 -1519 -6 -1570 -10 -69 -27 -103 -68 -133 -44 -32
-59 -37 -142 -43 -91 -7 -96 -9 -89 -33 5 -21 9 -21 464 -21 l459 0 0 25 c0
24 -3 25 -57 26 -78 1 -100 5 -152 32 -54 27 -77 69 -90 157 -4 36 -8 429 -7
875 2 882 1 873 59 932 42 45 92 61 190 62 54 1 57 2 57 26 l0 25 -310 0
c-287 0 -311 -1 -317 -17 -8 -23 -93 -212 -149 -332 -24 -51 -44 -95 -44 -96
0 -2 -17 -41 -39 -87 -59 -128 -99 -214 -166 -362 -7 -17 -32 -71 -55 -121
-23 -49 -59 -128 -80 -175 -21 -47 -56 -123 -78 -170 -22 -47 -63 -137 -92
-200 -28 -63 -53 -116 -55 -118 -2 -2 -15 20 -28 50 -14 29 -41 87 -60 128
-19 41 -94 203 -167 360 -73 157 -154 332 -181 389 -27 57 -49 105 -49 106 0
2 -29 65 -65 140 -36 76 -65 138 -65 140 0 1 -24 54 -54 116 -29 63 -67 144
-84 182 l-31 67 -310 0 -311 0 0 -23z"/>
<path d="M11709 6258 c-1 -2 -3 -13 -4 -25 -2 -22 2 -23 59 -24 33 0 71 -2 82
-4 75 -15 127 -59 150 -128 16 -48 18 -116 19 -857 0 -443 -3 -836 -8 -874 -9
-81 -26 -116 -70 -150 -27 -21 -50 -29 -119 -44 -5 -1 -33 -2 -63 -2 -51 0
-55 -1 -51 -22 l3 -23 839 0 839 0 27 85 c14 47 50 159 78 250 29 91 58 183
65 205 10 30 10 42 2 47 -30 19 -44 5 -87 -84 -84 -173 -156 -255 -275 -313
-92 -44 -147 -50 -485 -50 -297 0 -314 3 -351 55 -10 14 -22 50 -27 80 -10 68
-8 1588 2 1650 19 112 91 161 261 175 89 8 95 10 95 35 0 20 -4 20 -490 20
-269 0 -491 -1 -491 -2z"/>
<path d="M15720 6231 c0 -25 3 -28 24 -24 33 7 168 -61 215 -108 35 -34 85
-108 386 -566 71 -109 173 -265 227 -347 54 -81 98 -152 98 -157 0 -5 4 -9 8
-9 24 0 28 -63 26 -355 -2 -391 -9 -427 -94 -480 -31 -19 -59 -26 -122 -31
-82 -6 -101 -15 -91 -41 4 -11 90 -13 464 -13 l459 0 0 25 c0 23 -4 25 -42 26
-24 1 -49 1 -56 0 -27 -4 -118 29 -144 52 -27 23 -42 52 -54 105 -4 15 -8 178
-10 363 l-3 337 65 103 c36 57 78 123 92 147 15 24 63 99 107 168 44 68 116
181 160 250 237 375 279 426 396 488 45 23 93 40 124 43 46 5 51 8 51 29 l0
24 -377 0 -377 0 -4 -25 c-5 -22 -2 -25 28 -26 19 -1 37 -2 42 -3 134 -30 178
-130 115 -264 -22 -48 -120 -210 -198 -328 -11 -16 -78 -123 -150 -237 -71
-113 -133 -207 -138 -207 -4 0 -28 33 -53 73 -75 117 -131 202 -243 372 -58
88 -108 165 -111 170 -3 6 -21 35 -41 65 -70 108 -102 186 -96 231 10 79 85
126 205 128 38 1 42 3 42 26 l0 25 -465 0 -465 0 0 -29z"/>
</g>
</svg>
