<?xml version="1.0" standalone="no"?>
<!DOCTYPE svg PUBLIC "-//W3C//DTD SVG 20010904//EN"
 "http://www.w3.org/TR/2001/REC-SVG-20010904/DTD/svg10.dtd">
<svg version="1.0" xmlns="http://www.w3.org/2000/svg"
 width="753.000000pt" height="753.000000pt" viewBox="0 0 753.000000 753.000000"
 preserveAspectRatio="xMidYMid meet">
<metadata>
Created by potrace 1.14, written by Peter Selinger 2001-2017
</metadata>
<g transform="translate(0.000000,753.000000) scale(0.100000,-0.100000)"
fill="#000000" stroke="none">
<path d="M784 6091 c2 -768 6 -1415 9 -1438 4 -38 7 -68 23 -233 22 -227 68
-494 130 -745 19 -77 39 -153 44 -170 5 -16 21 -70 36 -120 122 -415 368 -956
592 -1305 343 -534 714 -969 1152 -1350 41 -36 80 -69 86 -75 39 -35 116 -96
298 -238 80 -62 336 -235 446 -301 199 -119 162 -115 301 -34 188 108 354 216
529 342 285 205 449 345 716 611 221 220 337 355 573 665 163 215 422 665 564
980 196 435 366 1011 432 1465 14 99 26 188 30 225 3 25 8 72 12 105 4 33 8
724 10 1536 l4 1476 -2996 0 -2996 0 5 -1396z"/>
</g>
</svg>
